<svg xmlns="http://www.w3.org/2000/svg" version="1.1" width="15.5in" height="10.5in" viewBox = " 0 0 1395 945" >
<!-- Front--> 
<g transform="translate(22.5, 22.5) " > 
<polygon style="stroke:#000000; fill:none; stroke-width:0.9" points="0, 0 38.25000000000001, 0 38.25000000000001, 10.62 76.50000000000001, 10.62 76.50000000000001, 0 103.50000000000001, 0 103.50000000000001, 10.62 130.5, 10.62 130.5, 0 157.5, 0 157.5, 10.62 184.5, 10.62 184.5, 0 211.5, 0 211.5, 10.62 238.5, 10.62 238.5, 0 265.5, 0 265.5, 10.62 292.5, 10.62 292.5, 0 319.5, 0 319.5, 10.62 346.5, 10.62 346.5, 0 373.5, 0 373.5, 10.62 411.75, 10.62 411.75, 0 450, 0 450, 38.25000000000001 439.38, 38.25000000000001 439.38, 76.50000000000001 450, 76.50000000000001 450, 103.50000000000001 439.38, 103.50000000000001 439.38, 130.5 450, 130.5 450, 157.5 439.38, 157.5 439.38, 184.5 450, 184.5 450, 211.5 439.38, 211.5 439.38, 238.5 450, 238.5 450, 265.5 439.38, 265.5 439.38, 292.5 450, 292.5 450, 319.5 439.38, 319.5 439.38, 346.5 450, 346.5 450, 373.5 439.38, 373.5 439.38, 411.75 450, 411.75 450, 450 411.75, 450 411.75, 439.38 373.5, 439.38 373.5, 450 346.5, 450 346.5, 439.38 319.5, 439.38 319.5, 450 292.5, 450 292.5, 439.38 265.5, 439.38 265.5, 450 238.5, 450 238.5, 439.38 211.5, 439.38 211.5, 450 184.5, 450 184.5, 439.38 157.5, 439.38 157.5, 450 130.5, 450 130.5, 439.38 103.50000000000001, 439.38 103.50000000000001, 450 76.50000000000001, 450 76.50000000000001, 439.38 38.25000000000001, 439.38 38.25000000000001, 450 0, 450 0, 411.75 10.62, 411.75 10.62, 373.5 0, 373.5 0, 346.5 10.62, 346.5 10.62, 319.5 0, 319.5 0, 292.5 10.62, 292.5 10.62, 265.5 0, 265.5 0, 238.5 10.62, 238.5 10.62, 211.5 0, 211.5 0, 184.5 10.62, 184.5 10.62, 157.5 0, 157.5 0, 130.5 10.62, 130.5 10.62, 103.50000000000001 0, 103.50000000000001 0, 76.50000000000001 10.62, 76.50000000000001 10.62, 38.25000000000001 0, 38.25000000000001 "/> 
</g>
<!-- Back--> 
<g transform="translate(472.5, 22.5) " > 
<polygon style="stroke:#000000; fill:none; stroke-width:0.9" points="0, 0 38.25000000000001, 0 38.25000000000001, 10.62 76.50000000000001, 10.62 76.50000000000001, 0 103.50000000000001, 0 103.50000000000001, 10.62 130.5, 10.62 130.5, 0 157.5, 0 157.5, 10.62 184.5, 10.62 184.5, 0 211.5, 0 211.5, 10.62 238.5, 10.62 238.5, 0 265.5, 0 265.5, 10.62 292.5, 10.62 292.5, 0 319.5, 0 319.5, 10.62 346.5, 10.62 346.5, 0 373.5, 0 373.5, 10.62 411.75, 10.62 411.75, 0 450, 0 450, 38.25000000000001 439.38, 38.25000000000001 439.38, 76.50000000000001 450, 76.50000000000001 450, 103.50000000000001 439.38, 103.50000000000001 439.38, 130.5 450, 130.5 450, 157.5 439.38, 157.5 439.38, 184.5 450, 184.5 450, 211.5 439.38, 211.5 439.38, 238.5 450, 238.5 450, 265.5 439.38, 265.5 439.38, 292.5 450, 292.5 450, 319.5 439.38, 319.5 439.38, 346.5 450, 346.5 450, 373.5 439.38, 373.5 439.38, 411.75 450, 411.75 450, 450 411.75, 450 411.75, 439.38 373.5, 439.38 373.5, 450 346.5, 450 346.5, 439.38 319.5, 439.38 319.5, 450 292.5, 450 292.5, 439.38 265.5, 439.38 265.5, 450 238.5, 450 238.5, 439.38 211.5, 439.38 211.5, 450 184.5, 450 184.5, 439.38 157.5, 439.38 157.5, 450 130.5, 450 130.5, 439.38 103.50000000000001, 439.38 103.50000000000001, 450 76.50000000000001, 450 76.50000000000001, 439.38 38.25000000000001, 439.38 38.25000000000001, 450 0, 450 0, 411.75 10.62, 411.75 10.62, 373.5 0, 373.5 0, 346.5 10.62, 346.5 10.62, 319.5 0, 319.5 0, 292.5 10.62, 292.5 10.62, 265.5 0, 265.5 0, 238.5 10.62, 238.5 10.62, 211.5 0, 211.5 0, 184.5 10.62, 184.5 10.62, 157.5 0, 157.5 0, 130.5 10.62, 130.5 10.62, 103.50000000000001 0, 103.50000000000001 0, 76.50000000000001 10.62, 76.50000000000001 10.62, 38.25000000000001 0, 38.25000000000001 "/> 
</g>
<!-- Left--> 
<g transform="translate(922.5, 22.5) " > 
<polygon style="stroke:#000000; fill:none; stroke-width:0.9" points="10.62, 0 38.25000000000001, 0 38.25000000000001, 10.62 76.50000000000001, 10.62 76.50000000000001, 0 103.50000000000001, 0 103.50000000000001, 10.62 130.5, 10.62 130.5, 0 157.5, 0 157.5, 10.62 184.5, 10.62 184.5, 0 211.5, 0 211.5, 10.62 238.5, 10.62 238.5, 0 265.5, 0 265.5, 10.62 292.5, 10.62 292.5, 0 319.5, 0 319.5, 10.62 346.5, 10.62 346.5, 0 373.5, 0 373.5, 10.62 411.75, 10.62 411.75, 0 439.38, 0 439.38, 38.25000000000001 450, 38.25000000000001 450, 76.50000000000001 439.38, 76.50000000000001 439.38, 103.50000000000001 450, 103.50000000000001 450, 130.5 439.38, 130.5 439.38, 157.5 450, 157.5 450, 184.5 439.38, 184.5 439.38, 211.5 450, 211.5 450, 238.5 439.38, 238.5 439.38, 265.5 450, 265.5 450, 292.5 439.38, 292.5 439.38, 319.5 450, 319.5 450, 346.5 439.38, 346.5 439.38, 373.5 450, 373.5 450, 411.75 439.38, 411.75 439.38, 450 411.75, 450 411.75, 439.38 373.5, 439.38 373.5, 450 346.5, 450 346.5, 439.38 319.5, 439.38 319.5, 450 292.5, 450 292.5, 439.38 265.5, 439.38 265.5, 450 238.5, 450 238.5, 439.38 211.5, 439.38 211.5, 450 184.5, 450 184.5, 439.38 157.5, 439.38 157.5, 450 130.5, 450 130.5, 439.38 103.50000000000001, 439.38 103.50000000000001, 450 76.50000000000001, 450 76.50000000000001, 439.38 38.25000000000001, 439.38 38.25000000000001, 450 10.62, 450 10.62, 411.75 0, 411.75 0, 373.5 10.62, 373.5 10.62, 346.5 0, 346.5 0, 319.5 10.62, 319.5 10.62, 292.5 0, 292.5 0, 265.5 10.62, 265.5 10.62, 238.5 0, 238.5 0, 211.5 10.62, 211.5 10.62, 184.5 0, 184.5 0, 157.5 10.62, 157.5 10.62, 130.5 0, 130.5 0, 103.50000000000001 10.62, 103.50000000000001 10.62, 76.50000000000001 0, 76.50000000000001 0, 38.25000000000001 10.62, 38.25000000000001 "/> 
</g>
<!-- Right--> 
<g transform="translate(922.5, 472.5) " > 
<polygon style="stroke:#000000; fill:none; stroke-width:0.9" points="10.62, 0 38.25000000000001, 0 38.25000000000001, 10.62 76.50000000000001, 10.62 76.50000000000001, 0 103.50000000000001, 0 103.50000000000001, 10.62 130.5, 10.62 130.5, 0 157.5, 0 157.5, 10.62 184.5, 10.62 184.5, 0 211.5, 0 211.5, 10.62 238.5, 10.62 238.5, 0 265.5, 0 265.5, 10.62 292.5, 10.62 292.5, 0 319.5, 0 319.5, 10.62 346.5, 10.62 346.5, 0 373.5, 0 373.5, 10.62 411.75, 10.62 411.75, 0 439.38, 0 439.38, 38.25000000000001 450, 38.25000000000001 450, 76.50000000000001 439.38, 76.50000000000001 439.38, 103.50000000000001 450, 103.50000000000001 450, 130.5 439.38, 130.5 439.38, 157.5 450, 157.5 450, 184.5 439.38, 184.5 439.38, 211.5 450, 211.5 450, 238.5 439.38, 238.5 439.38, 265.5 450, 265.5 450, 292.5 439.38, 292.5 439.38, 319.5 450, 319.5 450, 346.5 439.38, 346.5 439.38, 373.5 450, 373.5 450, 411.75 439.38, 411.75 439.38, 450 411.75, 450 411.75, 439.38 373.5, 439.38 373.5, 450 346.5, 450 346.5, 439.38 319.5, 439.38 319.5, 450 292.5, 450 292.5, 439.38 265.5, 439.38 265.5, 450 238.5, 450 238.5, 439.38 211.5, 439.38 211.5, 450 184.5, 450 184.5, 439.38 157.5, 439.38 157.5, 450 130.5, 450 130.5, 439.38 103.50000000000001, 439.38 103.50000000000001, 450 76.50000000000001, 450 76.50000000000001, 439.38 38.25000000000001, 439.38 38.25000000000001, 450 10.62, 450 10.62, 411.75 0, 411.75 0, 373.5 10.62, 373.5 10.62, 346.5 0, 346.5 0, 319.5 10.62, 319.5 10.62, 292.5 0, 292.5 0, 265.5 10.62, 265.5 10.62, 238.5 0, 238.5 0, 211.5 10.62, 211.5 10.62, 184.5 0, 184.5 0, 157.5 10.62, 157.5 10.62, 130.5 0, 130.5 0, 103.50000000000001 10.62, 103.50000000000001 10.62, 76.50000000000001 0, 76.50000000000001 0, 38.25000000000001 10.62, 38.25000000000001 "/> 
</g>
<!-- Top--> 
<g transform="translate(22.5, 472.5) " > 
<polygon style="stroke:#000000; fill:none; stroke-width:0.9" points="10.62, 10.62 38.25000000000001, 10.62 38.25000000000001, 0 76.50000000000001, 0 76.50000000000001, 10.62 103.50000000000001, 10.62 103.50000000000001, 0 130.5, 0 130.5, 10.62 157.5, 10.62 157.5, 0 184.5, 0 184.5, 10.62 211.5, 10.62 211.5, 0 238.5, 0 238.5, 10.62 265.5, 10.62 265.5, 0 292.5, 0 292.5, 10.62 319.5, 10.62 319.5, 0 346.5, 0 346.5, 10.62 373.5, 10.62 373.5, 0 411.75, 0 411.75, 10.62 439.38, 10.62 439.38, 38.25000000000001 450, 38.25000000000001 450, 76.50000000000001 439.38, 76.50000000000001 439.38, 103.50000000000001 450, 103.50000000000001 450, 130.5 439.38, 130.5 439.38, 157.5 450, 157.5 450, 184.5 439.38, 184.5 439.38, 211.5 450, 211.5 450, 238.5 439.38, 238.5 439.38, 265.5 450, 265.5 450, 292.5 439.38, 292.5 439.38, 319.5 450, 319.5 450, 346.5 439.38, 346.5 439.38, 373.5 450, 373.5 450, 411.75 439.38, 411.75 439.38, 439.38 411.75, 439.38 411.75, 450 373.5, 450 373.5, 439.38 346.5, 439.38 346.5, 450 319.5, 450 319.5, 439.38 292.5, 439.38 292.5, 450 265.5, 450 265.5, 439.38 238.5, 439.38 238.5, 450 211.5, 450 211.5, 439.38 184.5, 439.38 184.5, 450 157.5, 450 157.5, 439.38 130.5, 439.38 130.5, 450 103.50000000000001, 450 103.50000000000001, 439.38 76.50000000000001, 439.38 76.50000000000001, 450 38.25000000000001, 450 38.25000000000001, 439.38 10.62, 439.38 10.62, 411.75 0, 411.75 0, 373.5 10.62, 373.5 10.62, 346.5 0, 346.5 0, 319.5 10.62, 319.5 10.62, 292.5 0, 292.5 0, 265.5 10.62, 265.5 10.62, 238.5 0, 238.5 0, 211.5 10.62, 211.5 10.62, 184.5 0, 184.5 0, 157.5 10.62, 157.5 10.62, 130.5 0, 130.5 0, 103.50000000000001 10.62, 103.50000000000001 10.62, 76.50000000000001 0, 76.50000000000001 0, 38.25000000000001 10.62, 38.25000000000001 "/> 
 <rect x="56.25" y="56.25" width="337.5" height="337.5" rx="0" ry="0" style="stroke:#000000;stroke-width:0.9;fill:none" /> 
</g>
<!-- Bottom--> 
<g transform="translate(472.5, 472.5) " > 
<polygon style="stroke:#000000; fill:none; stroke-width:0.9" points="10.62, 10.62 38.25000000000001, 10.62 38.25000000000001, 0 76.50000000000001, 0 76.50000000000001, 10.62 103.50000000000001, 10.62 103.50000000000001, 0 130.5, 0 130.5, 10.62 157.5, 10.62 157.5, 0 184.5, 0 184.5, 10.62 211.5, 10.62 211.5, 0 238.5, 0 238.5, 10.62 265.5, 10.62 265.5, 0 292.5, 0 292.5, 10.62 319.5, 10.62 319.5, 0 346.5, 0 346.5, 10.62 373.5, 10.62 373.5, 0 411.75, 0 411.75, 10.62 439.38, 10.62 439.38, 38.25000000000001 450, 38.25000000000001 450, 76.50000000000001 439.38, 76.50000000000001 439.38, 103.50000000000001 450, 103.50000000000001 450, 130.5 439.38, 130.5 439.38, 157.5 450, 157.5 450, 184.5 439.38, 184.5 439.38, 211.5 450, 211.5 450, 238.5 439.38, 238.5 439.38, 265.5 450, 265.5 450, 292.5 439.38, 292.5 439.38, 319.5 450, 319.5 450, 346.5 439.38, 346.5 439.38, 373.5 450, 373.5 450, 411.75 439.38, 411.75 439.38, 439.38 411.75, 439.38 411.75, 450 373.5, 450 373.5, 439.38 346.5, 439.38 346.5, 450 319.5, 450 319.5, 439.38 292.5, 439.38 292.5, 450 265.5, 450 265.5, 439.38 238.5, 439.38 238.5, 450 211.5, 450 211.5, 439.38 184.5, 439.38 184.5, 450 157.5, 450 157.5, 439.38 130.5, 439.38 130.5, 450 103.50000000000001, 450 103.50000000000001, 439.38 76.50000000000001, 439.38 76.50000000000001, 450 38.25000000000001, 450 38.25000000000001, 439.38 10.62, 439.38 10.62, 411.75 0, 411.75 0, 373.5 10.62, 373.5 10.62, 346.5 0, 346.5 0, 319.5 10.62, 319.5 10.62, 292.5 0, 292.5 0, 265.5 10.62, 265.5 10.62, 238.5 0, 238.5 0, 211.5 10.62, 211.5 10.62, 184.5 0, 184.5 0, 157.5 10.62, 157.5 10.62, 130.5 0, 130.5 0, 103.50000000000001 10.62, 103.50000000000001 10.62, 76.50000000000001 0, 76.50000000000001 0, 38.25000000000001 10.62, 38.25000000000001 "/> 
</g></svg>