<svg xmlns="http://www.w3.org/2000/svg" version="1.1" width="28.5in" height="10.5in" viewBox = " 0 0 2565 945" >
<!-- Front--> 
<g transform="translate(22.5, 22.5) " > 
<polygon style="stroke:#000000; fill:none; stroke-width:0.9" points="0, 0 35.99999999999999, 0 35.99999999999999, 10.62 71.99999999999999, 10.62 71.99999999999999, 0 98.99999999999999, 0 98.99999999999999, 10.62 125.99999999999999, 10.62 125.99999999999999, 0 153, 0 153, 10.62 180, 10.62 180, 0 207, 0 207, 10.62 234, 10.62 234, 0 261, 0 261, 10.62 288, 10.62 288, 0 315, 0 315, 10.62 342, 10.62 342, 0 369, 0 369, 10.62 396, 10.62 396, 0 423, 0 423, 10.62 450, 10.62 450, 0 477, 0 477, 10.62 504, 10.62 504, 0 531, 0 531, 10.62 558, 10.62 558, 0 585, 0 585, 10.62 612, 10.62 612, 0 639, 0 639, 10.62 666, 10.62 666, 0 693, 0 693, 10.62 720, 10.62 720, 0 747, 0 747, 10.62 774, 10.62 774, 0 801, 0 801, 10.62 828, 10.62 828, 0 855, 0 855, 10.62 882, 10.62 882, 0 909, 0 909, 10.62 936, 10.62 936, 0 963, 0 963, 10.62 999, 10.62 999, 0 1035, 0 1035, 38.25000000000001 1024.38, 38.25000000000001 1024.38, 76.50000000000001 1035, 76.50000000000001 1035, 103.50000000000001 1024.38, 103.50000000000001 1024.38, 130.5 1035, 130.5 1035, 157.5 1024.38, 157.5 1024.38, 184.5 1035, 184.5 1035, 211.5 1024.38, 211.5 1024.38, 238.5 1035, 238.5 1035, 265.5 1024.38, 265.5 1024.38, 292.5 1035, 292.5 1035, 319.5 1024.38, 319.5 1024.38, 346.5 1035, 346.5 1035, 373.5 1024.38, 373.5 1024.38, 411.75 1035, 411.75 1035, 450 999, 450 999, 439.38 963, 439.38 963, 450 936, 450 936, 439.38 909, 439.38 909, 450 882, 450 882, 439.38 855, 439.38 855, 450 828, 450 828, 439.38 801, 439.38 801, 450 774, 450 774, 439.38 747, 439.38 747, 450 720, 450 720, 439.38 693, 439.38 693, 450 666, 450 666, 439.38 639, 439.38 639, 450 612, 450 612, 439.38 585, 439.38 585, 450 558, 450 558, 439.38 531, 439.38 531, 450 504, 450 504, 439.38 477, 439.38 477, 450 450, 450 450, 439.38 423, 439.38 423, 450 396, 450 396, 439.38 369, 439.38 369, 450 342, 450 342, 439.38 315, 439.38 315, 450 288, 450 288, 439.38 261, 439.38 261, 450 234, 450 234, 439.38 207, 439.38 207, 450 180, 450 180, 439.38 153, 439.38 153, 450 125.99999999999999, 450 125.99999999999999, 439.38 98.99999999999999, 439.38 98.99999999999999, 450 71.99999999999999, 450 71.99999999999999, 439.38 35.99999999999999, 439.38 35.99999999999999, 450 0, 450 0, 411.75 10.62, 411.75 10.62, 373.5 0, 373.5 0, 346.5 10.62, 346.5 10.62, 319.5 0, 319.5 0, 292.5 10.62, 292.5 10.62, 265.5 0, 265.5 0, 238.5 10.62, 238.5 10.62, 211.5 0, 211.5 0, 184.5 10.62, 184.5 10.62, 157.5 0, 157.5 0, 130.5 10.62, 130.5 10.62, 103.50000000000001 0, 103.50000000000001 0, 76.50000000000001 10.62, 76.50000000000001 10.62, 38.25000000000001 0, 38.25000000000001 "/> 
 <rect x="45" y="45" width="90" height="135" rx="0" ry="0" style="stroke:#000000;stroke-width:0.9;fill:none" /> 
 <rect x="168.75" y="45" width="90" height="135" rx="0" ry="0" style="stroke:#000000;stroke-width:0.9;fill:none" /> 
 <rect x="292.5" y="45" width="90" height="135" rx="0" ry="0" style="stroke:#000000;stroke-width:0.9;fill:none" /> 
 <circle cx="450" cy="360" r="11.700000000000001" style="stroke:#000000;stroke-width:0.9;fill:none" /> 
 <circle cx="585" cy="346.5" r="33.75" style="stroke:#000000;stroke-width:0.9;fill:none" /> 
 <rect x="832.5" y="315" width="112.5" height="67.5" rx="0" ry="0" style="stroke:#000000;stroke-width:0.9;fill:none" /> 
 <circle cx="720" cy="90" r="22.5" style="stroke:#000000;stroke-width:0.9;fill:none" /> 
</g>
<!-- Back--> 
<g transform="translate(1057.5, 22.5) " > 
<polygon style="stroke:#000000; fill:none; stroke-width:0.9" points="0, 0 35.99999999999999, 0 35.99999999999999, 10.62 71.99999999999999, 10.62 71.99999999999999, 0 98.99999999999999, 0 98.99999999999999, 10.62 125.99999999999999, 10.62 125.99999999999999, 0 153, 0 153, 10.62 180, 10.62 180, 0 207, 0 207, 10.62 234, 10.62 234, 0 261, 0 261, 10.62 288, 10.62 288, 0 315, 0 315, 10.62 342, 10.62 342, 0 369, 0 369, 10.62 396, 10.62 396, 0 423, 0 423, 10.62 450, 10.62 450, 0 477, 0 477, 10.62 504, 10.62 504, 0 531, 0 531, 10.62 558, 10.62 558, 0 585, 0 585, 10.62 612, 10.62 612, 0 639, 0 639, 10.62 666, 10.62 666, 0 693, 0 693, 10.62 720, 10.62 720, 0 747, 0 747, 10.62 774, 10.62 774, 0 801, 0 801, 10.62 828, 10.62 828, 0 855, 0 855, 10.62 882, 10.62 882, 0 909, 0 909, 10.62 936, 10.62 936, 0 963, 0 963, 10.62 999, 10.62 999, 0 1035, 0 1035, 38.25000000000001 1024.38, 38.25000000000001 1024.38, 76.50000000000001 1035, 76.50000000000001 1035, 103.50000000000001 1024.38, 103.50000000000001 1024.38, 130.5 1035, 130.5 1035, 157.5 1024.38, 157.5 1024.38, 184.5 1035, 184.5 1035, 211.5 1024.38, 211.5 1024.38, 238.5 1035, 238.5 1035, 265.5 1024.38, 265.5 1024.38, 292.5 1035, 292.5 1035, 319.5 1024.38, 319.5 1024.38, 346.5 1035, 346.5 1035, 373.5 1024.38, 373.5 1024.38, 411.75 1035, 411.75 1035, 450 999, 450 999, 439.38 963, 439.38 963, 450 936, 450 936, 439.38 909, 439.38 909, 450 882, 450 882, 439.38 855, 439.38 855, 450 828, 450 828, 439.38 801, 439.38 801, 450 774, 450 774, 439.38 747, 439.38 747, 450 720, 450 720, 439.38 693, 439.38 693, 450 666, 450 666, 439.38 639, 439.38 639, 450 612, 450 612, 439.38 585, 439.38 585, 450 558, 450 558, 439.38 531, 439.38 531, 450 504, 450 504, 439.38 477, 439.38 477, 450 450, 450 450, 439.38 423, 439.38 423, 450 396, 450 396, 439.38 369, 439.38 369, 450 342, 450 342, 439.38 315, 439.38 315, 450 288, 450 288, 439.38 261, 439.38 261, 450 234, 450 234, 439.38 207, 439.38 207, 450 180, 450 180, 439.38 153, 439.38 153, 450 125.99999999999999, 450 125.99999999999999, 439.38 98.99999999999999, 439.38 98.99999999999999, 450 71.99999999999999, 450 71.99999999999999, 439.38 35.99999999999999, 439.38 35.99999999999999, 450 0, 450 0, 411.75 10.62, 411.75 10.62, 373.5 0, 373.5 0, 346.5 10.62, 346.5 10.62, 319.5 0, 319.5 0, 292.5 10.62, 292.5 10.62, 265.5 0, 265.5 0, 238.5 10.62, 238.5 10.62, 211.5 0, 211.5 0, 184.5 10.62, 184.5 10.62, 157.5 0, 157.5 0, 130.5 10.62, 130.5 10.62, 103.50000000000001 0, 103.50000000000001 0, 76.50000000000001 10.62, 76.50000000000001 10.62, 38.25000000000001 0, 38.25000000000001 "/> 
</g>
<!-- Left--> 
<g transform="translate(2092.5, 22.5) " > 
<polygon style="stroke:#000000; fill:none; stroke-width:0.9" points="10.62, 0 38.25000000000001, 0 38.25000000000001, 10.62 76.50000000000001, 10.62 76.50000000000001, 0 103.50000000000001, 0 103.50000000000001, 10.62 130.5, 10.62 130.5, 0 157.5, 0 157.5, 10.62 184.5, 10.62 184.5, 0 211.5, 0 211.5, 10.62 238.5, 10.62 238.5, 0 265.5, 0 265.5, 10.62 292.5, 10.62 292.5, 0 319.5, 0 319.5, 10.62 346.5, 10.62 346.5, 0 373.5, 0 373.5, 10.62 411.75, 10.62 411.75, 0 439.38, 0 439.38, 38.25000000000001 450, 38.25000000000001 450, 76.50000000000001 439.38, 76.50000000000001 439.38, 103.50000000000001 450, 103.50000000000001 450, 130.5 439.38, 130.5 439.38, 157.5 450, 157.5 450, 184.5 439.38, 184.5 439.38, 211.5 450, 211.5 450, 238.5 439.38, 238.5 439.38, 265.5 450, 265.5 450, 292.5 439.38, 292.5 439.38, 319.5 450, 319.5 450, 346.5 439.38, 346.5 439.38, 373.5 450, 373.5 450, 411.75 439.38, 411.75 439.38, 450 411.75, 450 411.75, 439.38 373.5, 439.38 373.5, 450 346.5, 450 346.5, 439.38 319.5, 439.38 319.5, 450 292.5, 450 292.5, 439.38 265.5, 439.38 265.5, 450 238.5, 450 238.5, 439.38 211.5, 439.38 211.5, 450 184.5, 450 184.5, 439.38 157.5, 439.38 157.5, 450 130.5, 450 130.5, 439.38 103.50000000000001, 439.38 103.50000000000001, 450 76.50000000000001, 450 76.50000000000001, 439.38 38.25000000000001, 439.38 38.25000000000001, 450 10.62, 450 10.62, 411.75 0, 411.75 0, 373.5 10.62, 373.5 10.62, 346.5 0, 346.5 0, 319.5 10.62, 319.5 10.62, 292.5 0, 292.5 0, 265.5 10.62, 265.5 10.62, 238.5 0, 238.5 0, 211.5 10.62, 211.5 10.62, 184.5 0, 184.5 0, 157.5 10.62, 157.5 10.62, 130.5 0, 130.5 0, 103.50000000000001 10.62, 103.50000000000001 10.62, 76.50000000000001 0, 76.50000000000001 0, 38.25000000000001 10.62, 38.25000000000001 "/> 
</g>
<!-- Right--> 
<g transform="translate(2092.5, 472.5) " > 
<polygon style="stroke:#000000; fill:none; stroke-width:0.9" points="10.62, 0 38.25000000000001, 0 38.25000000000001, 10.62 76.50000000000001, 10.62 76.50000000000001, 0 103.50000000000001, 0 103.50000000000001, 10.62 130.5, 10.62 130.5, 0 157.5, 0 157.5, 10.62 184.5, 10.62 184.5, 0 211.5, 0 211.5, 10.62 238.5, 10.62 238.5, 0 265.5, 0 265.5, 10.62 292.5, 10.62 292.5, 0 319.5, 0 319.5, 10.62 346.5, 10.62 346.5, 0 373.5, 0 373.5, 10.62 411.75, 10.62 411.75, 0 439.38, 0 439.38, 38.25000000000001 450, 38.25000000000001 450, 76.50000000000001 439.38, 76.50000000000001 439.38, 103.50000000000001 450, 103.50000000000001 450, 130.5 439.38, 130.5 439.38, 157.5 450, 157.5 450, 184.5 439.38, 184.5 439.38, 211.5 450, 211.5 450, 238.5 439.38, 238.5 439.38, 265.5 450, 265.5 450, 292.5 439.38, 292.5 439.38, 319.5 450, 319.5 450, 346.5 439.38, 346.5 439.38, 373.5 450, 373.5 450, 411.75 439.38, 411.75 439.38, 450 411.75, 450 411.75, 439.38 373.5, 439.38 373.5, 450 346.5, 450 346.5, 439.38 319.5, 439.38 319.5, 450 292.5, 450 292.5, 439.38 265.5, 439.38 265.5, 450 238.5, 450 238.5, 439.38 211.5, 439.38 211.5, 450 184.5, 450 184.5, 439.38 157.5, 439.38 157.5, 450 130.5, 450 130.5, 439.38 103.50000000000001, 439.38 103.50000000000001, 450 76.50000000000001, 450 76.50000000000001, 439.38 38.25000000000001, 439.38 38.25000000000001, 450 10.62, 450 10.62, 411.75 0, 411.75 0, 373.5 10.62, 373.5 10.62, 346.5 0, 346.5 0, 319.5 10.62, 319.5 10.62, 292.5 0, 292.5 0, 265.5 10.62, 265.5 10.62, 238.5 0, 238.5 0, 211.5 10.62, 211.5 10.62, 184.5 0, 184.5 0, 157.5 10.62, 157.5 10.62, 130.5 0, 130.5 0, 103.50000000000001 10.62, 103.50000000000001 10.62, 76.50000000000001 0, 76.50000000000001 0, 38.25000000000001 10.62, 38.25000000000001 "/> 
</g>
<!-- Top--> 
<g transform="translate(22.5, 472.5) " > 
<polygon style="stroke:#000000; fill:none; stroke-width:0.9" points="10.62, 10.62 35.99999999999999, 10.62 35.99999999999999, 0 71.99999999999999, 0 71.99999999999999, 10.62 98.99999999999999, 10.62 98.99999999999999, 0 125.99999999999999, 0 125.99999999999999, 10.62 153, 10.62 153, 0 180, 0 180, 10.62 207, 10.62 207, 0 234, 0 234, 10.62 261, 10.62 261, 0 288, 0 288, 10.62 315, 10.62 315, 0 342, 0 342, 10.62 369, 10.62 369, 0 396, 0 396, 10.62 423, 10.62 423, 0 450, 0 450, 10.62 477, 10.62 477, 0 504, 0 504, 10.62 531, 10.62 531, 0 558, 0 558, 10.62 585, 10.62 585, 0 612, 0 612, 10.62 639, 10.62 639, 0 666, 0 666, 10.62 693, 10.62 693, 0 720, 0 720, 10.62 747, 10.62 747, 0 774, 0 774, 10.62 801, 10.62 801, 0 828, 0 828, 10.62 855, 10.62 855, 0 882, 0 882, 10.62 909, 10.62 909, 0 936, 0 936, 10.62 963, 10.62 963, 0 999, 0 999, 10.62 1024.38, 10.62 1024.38, 38.25000000000001 1035, 38.25000000000001 1035, 76.50000000000001 1024.38, 76.50000000000001 1024.38, 103.50000000000001 1035, 103.50000000000001 1035, 130.5 1024.38, 130.5 1024.38, 157.5 1035, 157.5 1035, 184.5 1024.38, 184.5 1024.38, 211.5 1035, 211.5 1035, 238.5 1024.38, 238.5 1024.38, 265.5 1035, 265.5 1035, 292.5 1024.38, 292.5 1024.38, 319.5 1035, 319.5 1035, 346.5 1024.38, 346.5 1024.38, 373.5 1035, 373.5 1035, 411.75 1024.38, 411.75 1024.38, 439.38 999, 439.38 999, 450 963, 450 963, 439.38 936, 439.38 936, 450 909, 450 909, 439.38 882, 439.38 882, 450 855, 450 855, 439.38 828, 439.38 828, 450 801, 450 801, 439.38 774, 439.38 774, 450 747, 450 747, 439.38 720, 439.38 720, 450 693, 450 693, 439.38 666, 439.38 666, 450 639, 450 639, 439.38 612, 439.38 612, 450 585, 450 585, 439.38 558, 439.38 558, 450 531, 450 531, 439.38 504, 439.38 504, 450 477, 450 477, 439.38 450, 439.38 450, 450 423, 450 423, 439.38 396, 439.38 396, 450 369, 450 369, 439.38 342, 439.38 342, 450 315, 450 315, 439.38 288, 439.38 288, 450 261, 450 261, 439.38 234, 439.38 234, 450 207, 450 207, 439.38 180, 439.38 180, 450 153, 450 153, 439.38 125.99999999999999, 439.38 125.99999999999999, 450 98.99999999999999, 450 98.99999999999999, 439.38 71.99999999999999, 439.38 71.99999999999999, 450 35.99999999999999, 450 35.99999999999999, 439.38 10.62, 439.38 10.62, 411.75 0, 411.75 0, 373.5 10.62, 373.5 10.62, 346.5 0, 346.5 0, 319.5 10.62, 319.5 10.62, 292.5 0, 292.5 0, 265.5 10.62, 265.5 10.62, 238.5 0, 238.5 0, 211.5 10.62, 211.5 10.62, 184.5 0, 184.5 0, 157.5 10.62, 157.5 10.62, 130.5 0, 130.5 0, 103.50000000000001 10.62, 103.50000000000001 10.62, 76.50000000000001 0, 76.50000000000001 0, 38.25000000000001 10.62, 38.25000000000001 "/> 
</g>
<!-- Bottom--> 
<g transform="translate(1057.5, 472.5) " > 
<polygon style="stroke:#000000; fill:none; stroke-width:0.9" points="10.62, 10.62 35.99999999999999, 10.62 35.99999999999999, 0 71.99999999999999, 0 71.99999999999999, 10.62 98.99999999999999, 10.62 98.99999999999999, 0 125.99999999999999, 0 125.99999999999999, 10.62 153, 10.62 153, 0 180, 0 180, 10.62 207, 10.62 207, 0 234, 0 234, 10.62 261, 10.62 261, 0 288, 0 288, 10.62 315, 10.62 315, 0 342, 0 342, 10.62 369, 10.62 369, 0 396, 0 396, 10.62 423, 10.62 423, 0 450, 0 450, 10.62 477, 10.62 477, 0 504, 0 504, 10.62 531, 10.62 531, 0 558, 0 558, 10.62 585, 10.62 585, 0 612, 0 612, 10.62 639, 10.62 639, 0 666, 0 666, 10.62 693, 10.62 693, 0 720, 0 720, 10.62 747, 10.62 747, 0 774, 0 774, 10.62 801, 10.62 801, 0 828, 0 828, 10.62 855, 10.62 855, 0 882, 0 882, 10.62 909, 10.62 909, 0 936, 0 936, 10.62 963, 10.62 963, 0 999, 0 999, 10.62 1024.38, 10.62 1024.38, 38.25000000000001 1035, 38.25000000000001 1035, 76.50000000000001 1024.38, 76.50000000000001 1024.38, 103.50000000000001 1035, 103.50000000000001 1035, 130.5 1024.38, 130.5 1024.38, 157.5 1035, 157.5 1035, 184.5 1024.38, 184.5 1024.38, 211.5 1035, 211.5 1035, 238.5 1024.38, 238.5 1024.38, 265.5 1035, 265.5 1035, 292.5 1024.38, 292.5 1024.38, 319.5 1035, 319.5 1035, 346.5 1024.38, 346.5 1024.38, 373.5 1035, 373.5 1035, 411.75 1024.38, 411.75 1024.38, 439.38 999, 439.38 999, 450 963, 450 963, 439.38 936, 439.38 936, 450 909, 450 909, 439.38 882, 439.38 882, 450 855, 450 855, 439.38 828, 439.38 828, 450 801, 450 801, 439.38 774, 439.38 774, 450 747, 450 747, 439.38 720, 439.38 720, 450 693, 450 693, 439.38 666, 439.38 666, 450 639, 450 639, 439.38 612, 439.38 612, 450 585, 450 585, 439.38 558, 439.38 558, 450 531, 450 531, 439.38 504, 439.38 504, 450 477, 450 477, 439.38 450, 439.38 450, 450 423, 450 423, 439.38 396, 439.38 396, 450 369, 450 369, 439.38 342, 439.38 342, 450 315, 450 315, 439.38 288, 439.38 288, 450 261, 450 261, 439.38 234, 439.38 234, 450 207, 450 207, 439.38 180, 439.38 180, 450 153, 450 153, 439.38 125.99999999999999, 439.38 125.99999999999999, 450 98.99999999999999, 450 98.99999999999999, 439.38 71.99999999999999, 439.38 71.99999999999999, 450 35.99999999999999, 450 35.99999999999999, 439.38 10.62, 439.38 10.62, 411.75 0, 411.75 0, 373.5 10.62, 373.5 10.62, 346.5 0, 346.5 0, 319.5 10.62, 319.5 10.62, 292.5 0, 292.5 0, 265.5 10.62, 265.5 10.62, 238.5 0, 238.5 0, 211.5 10.62, 211.5 10.62, 184.5 0, 184.5 0, 157.5 10.62, 157.5 10.62, 130.5 0, 130.5 0, 103.50000000000001 10.62, 103.50000000000001 10.62, 76.50000000000001 0, 76.50000000000001 0, 38.25000000000001 10.62, 38.25000000000001 "/> 
</g></svg>